%TF.GenerationSoftware,KiCad,Pcbnew,10.0.5-10.0.5~ubuntu24.04.1*%
%TF.CreationDate,2026-08-11T13:53:21+00:00*%
%TF.ProjectId,esp32_robot_carrier_v3,65737033-325f-4726-9f62-6f745f636172,rev?*%
%TF.SameCoordinates,Original*%
%TF.FileFunction,Soldermask,Top*%
%TF.FilePolarity,Negative*%
%FSLAX46Y46*%
G04 Gerber Fmt 4.6, Leading zero omitted, Abs format (unit mm)*
G04 Created by KiCad (PCBNEW 10.0.5-10.0.5~ubuntu24.04.1) date 2026-08-11 13:53:21*
%MOMM*%
%LPD*%
G01*
G04 APERTURE LIST*
G04 Aperture macros list*
%AMRoundRect*
0 Rectangle with rounded corners*
0 $1 Rounding radius*
0 $2 $3 $4 $5 $6 $7 $8 $9 X,Y pos of 4 corners*
0 Add a 4 corners polygon primitive as box body*
4,1,4,$2,$3,$4,$5,$6,$7,$8,$9,$2,$3,0*
0 Add four circle primitives for the rounded corners*
1,1,$1+$1,$2,$3*
1,1,$1+$1,$4,$5*
1,1,$1+$1,$6,$7*
1,1,$1+$1,$8,$9*
0 Add four rect primitives between the rounded corners*
20,1,$1+$1,$2,$3,$4,$5,0*
20,1,$1+$1,$4,$5,$6,$7,0*
20,1,$1+$1,$6,$7,$8,$9,0*
20,1,$1+$1,$8,$9,$2,$3,0*%
G04 Aperture macros list end*
%ADD10C,3.200000*%
%ADD11R,2.400000X2.400000*%
%ADD12C,2.400000*%
%ADD13RoundRect,0.240000X-0.360000X-0.360000X0.360000X-0.360000X0.360000X0.360000X-0.360000X0.360000X0*%
%ADD14R,2.300000X2.300000*%
%ADD15C,2.300000*%
%ADD16RoundRect,0.300000X-0.450000X-0.450000X0.450000X-0.450000X0.450000X0.450000X-0.450000X0.450000X0*%
%ADD17R,1.800000X1.800000*%
%ADD18C,1.800000*%
%ADD19C,2.000000*%
%ADD20RoundRect,0.225000X-0.525000X-0.525000X0.525000X-0.525000X0.525000X0.525000X-0.525000X0.525000X0*%
%ADD21R,2.600000X2.600000*%
%ADD22C,2.600000*%
%ADD23RoundRect,0.360000X-0.540000X-1.090000X0.540000X-1.090000X0.540000X1.090000X-0.540000X1.090000X0*%
%ADD24RoundRect,0.280000X-0.520000X-0.420000X0.520000X-0.420000X0.520000X0.420000X-0.520000X0.420000X0*%
%ADD25RoundRect,0.300000X0.450000X-0.450000X0.450000X0.450000X-0.450000X0.450000X-0.450000X-0.450000X0*%
%ADD26R,3.400000X3.400000*%
%ADD27C,3.400000*%
%ADD28RoundRect,0.270000X-1.080000X-1.380000X1.080000X-1.380000X1.080000X1.380000X-1.080000X1.380000X0*%
%ADD29O,2.700000X3.300000*%
%ADD30C,2.700000*%
%ADD31RoundRect,0.240000X-0.360000X-0.460000X0.360000X-0.460000X0.360000X0.460000X-0.360000X0.460000X0*%
%ADD32R,1.350000X0.450000*%
%ADD33RoundRect,0.090000X-0.585000X-0.135000X0.585000X-0.135000X0.585000X0.135000X-0.585000X0.135000X0*%
%ADD34RoundRect,0.112500X-0.562500X-0.112500X0.562500X-0.112500X0.562500X0.112500X-0.562500X0.112500X0*%
%ADD35R,1.100000X0.550000*%
%ADD36R,2.000000X2.000000*%
%ADD37R,2.200000X2.400000*%
%ADD38R,3.200000X3.200000*%
%ADD39RoundRect,0.260000X-0.390000X-0.390000X0.390000X-0.390000X0.390000X0.390000X-0.390000X0.390000X0*%
%ADD40R,2.000000X0.600000*%
%ADD41RoundRect,0.120000X-0.880000X-0.180000X0.880000X-0.180000X0.880000X0.180000X-0.880000X0.180000X0*%
%ADD42RoundRect,0.250000X-1.000000X-1.400000X1.000000X-1.400000X1.000000X1.400000X-1.000000X1.400000X0*%
%ADD43RoundRect,0.400000X-0.600000X-0.600000X0.600000X-0.600000X0.600000X0.600000X-0.600000X0.600000X0*%
G04 APERTURE END LIST*
D10*
%TO.C,JGND3_3*%
X122000000Y-52000000D03*
%TD*%
D11*
%TO.C,J_RREV*%
X5000000Y-70750000D03*
D12*
X5000000Y-67250000D03*
%TD*%
D13*
%TO.C,C5*%
X90900000Y-32500000D03*
X93100000Y-32500000D03*
%TD*%
D14*
%TO.C,C16*%
X104000000Y-144000000D03*
D15*
X107500000Y-144000000D03*
%TD*%
D16*
%TO.C,R21*%
X101600000Y-34000000D03*
X104400000Y-34000000D03*
%TD*%
D17*
%TO.C,U9*%
X22810000Y-66730000D03*
D18*
X22810000Y-69270000D03*
X15190000Y-69270000D03*
X15190000Y-66730000D03*
%TD*%
D19*
%TO.C,J_ESP_R*%
X75400000Y-25000000D03*
X75400000Y-27540000D03*
X75400000Y-30080000D03*
X75400000Y-32620000D03*
X75400000Y-35160000D03*
X75400000Y-37700000D03*
X75400000Y-40240000D03*
X75400000Y-42780000D03*
X75400000Y-45320000D03*
X75400000Y-47860000D03*
X75400000Y-50400000D03*
X75400000Y-52940000D03*
X75400000Y-55480000D03*
X75400000Y-58020000D03*
X75400000Y-60560000D03*
%TD*%
D16*
%TO.C,C22*%
X106900000Y-39000000D03*
X109100000Y-39000000D03*
%TD*%
%TO.C,R42*%
X105900000Y-116000000D03*
X108100000Y-116000000D03*
%TD*%
D10*
%TO.C,J3V3_3*%
X126000000Y-52000000D03*
%TD*%
D20*
%TO.C,C28*%
X143900000Y-15500000D03*
X146100000Y-15500000D03*
%TD*%
D13*
%TO.C,C9*%
X90900000Y-80500000D03*
X93100000Y-80500000D03*
%TD*%
D21*
%TO.C,C24*%
X82500000Y-102500000D03*
D22*
X77500000Y-102500000D03*
%TD*%
D16*
%TO.C,C21*%
X106900000Y-9000000D03*
X109100000Y-9000000D03*
%TD*%
D10*
%TO.C,J_SCL*%
X112000000Y-82000000D03*
%TD*%
D16*
%TO.C,R12*%
X29600000Y-44000000D03*
X32400000Y-44000000D03*
%TD*%
D10*
%TO.C,J_RHALLA*%
X112000000Y-52000000D03*
%TD*%
D16*
%TO.C,R30*%
X69400000Y-89000000D03*
X71600000Y-89000000D03*
%TD*%
D21*
%TO.C,PS2*%
X59140000Y-159840000D03*
D22*
X59140000Y-170000000D03*
X59140000Y-180160000D03*
D21*
X104860000Y-159840000D03*
D22*
X104860000Y-170000000D03*
X104860000Y-180160000D03*
%TD*%
D16*
%TO.C,R11*%
X24600000Y-46300000D03*
X27400000Y-46300000D03*
%TD*%
D10*
%TO.C,H2*%
X125000000Y-5000000D03*
%TD*%
D16*
%TO.C,R10*%
X29600000Y-38000000D03*
X32400000Y-38000000D03*
%TD*%
D10*
%TO.C,J_RHALLB*%
X112000000Y-58000000D03*
%TD*%
%TO.C,JGND3_4*%
X122000000Y-62000000D03*
%TD*%
D23*
%TO.C,C25*%
X110525000Y-164000000D03*
X113475000Y-164000000D03*
%TD*%
D24*
%TO.C,R37*%
X38400000Y-134000000D03*
X41600000Y-134000000D03*
%TD*%
D10*
%TO.C,J_LHALLC*%
X8000000Y-14000000D03*
%TD*%
D11*
%TO.C,J_LREV*%
X5000000Y-62750000D03*
D12*
X5000000Y-59250000D03*
%TD*%
D16*
%TO.C,R28*%
X90600000Y-78200000D03*
X93400000Y-78200000D03*
%TD*%
D11*
%TO.C,J_RBRK*%
X5000000Y-38750000D03*
D12*
X5000000Y-35250000D03*
%TD*%
D10*
%TO.C,J_LHALLA*%
X112000000Y-28000000D03*
%TD*%
%TO.C,JP2V*%
X24000000Y-92000000D03*
%TD*%
%TO.C,J_RGB_GND*%
X100000000Y-103000000D03*
%TD*%
%TO.C,J_RTRIG*%
X112000000Y-46000000D03*
%TD*%
D25*
%TO.C,C3*%
X71100000Y-100500000D03*
X73900000Y-100500000D03*
%TD*%
D10*
%TO.C,JGND3*%
X108000000Y-88000000D03*
%TD*%
%TO.C,JP3G*%
X41000000Y-96000000D03*
%TD*%
D16*
%TO.C,R25*%
X101600000Y-58000000D03*
X104400000Y-58000000D03*
%TD*%
%TO.C,R50*%
X69400000Y-82100000D03*
X69400000Y-79900000D03*
%TD*%
%TO.C,R52*%
X69400000Y-71000000D03*
X71600000Y-71000000D03*
%TD*%
D11*
%TO.C,J_24V_AUX*%
X35000000Y-175750000D03*
D12*
X35000000Y-172250000D03*
%TD*%
D10*
%TO.C,J_RX0*%
X112000000Y-64000000D03*
%TD*%
D16*
%TO.C,R49*%
X69400000Y-77000000D03*
X71600000Y-77000000D03*
%TD*%
D26*
%TO.C,F2*%
X120000000Y-112000000D03*
D27*
X120000000Y-134000000D03*
%TD*%
D10*
%TO.C,JP2G*%
X29000000Y-96000000D03*
%TD*%
%TO.C,J3V3_2*%
X126000000Y-42000000D03*
%TD*%
D28*
%TO.C,J_PI_PWR*%
X111000000Y-143000000D03*
D29*
X115200000Y-143000000D03*
D30*
X111000000Y-148500000D03*
X115200000Y-148500000D03*
%TD*%
D19*
%TO.C,J_ESP_L*%
X50000000Y-25000000D03*
X50000000Y-27540000D03*
X50000000Y-30080000D03*
X50000000Y-32620000D03*
X50000000Y-35160000D03*
X50000000Y-37700000D03*
X50000000Y-40240000D03*
X50000000Y-42780000D03*
X50000000Y-45320000D03*
X50000000Y-47860000D03*
X50000000Y-50400000D03*
X50000000Y-52940000D03*
X50000000Y-55480000D03*
X50000000Y-58020000D03*
X50000000Y-60560000D03*
%TD*%
D10*
%TO.C,J_RTHR*%
X8000000Y-56000000D03*
%TD*%
%TO.C,H6*%
X125000000Y-186000000D03*
%TD*%
D31*
%TO.C,JP_ESP_PWR*%
X54800000Y-60560000D03*
X56200000Y-60560000D03*
%TD*%
D10*
%TO.C,JP6G*%
X107000000Y-96000000D03*
%TD*%
D21*
%TO.C,PS1*%
X68530000Y-141620000D03*
D22*
X68530000Y-134000000D03*
X68530000Y-126380000D03*
D27*
X96470000Y-126380000D03*
D22*
X96470000Y-130190000D03*
X96470000Y-134000000D03*
X96470000Y-137810000D03*
D26*
X96470000Y-141620000D03*
%TD*%
D16*
%TO.C,R22*%
X90600000Y-36200000D03*
X93400000Y-36200000D03*
%TD*%
D14*
%TO.C,C10*%
X58000000Y-138000000D03*
D15*
X61500000Y-138000000D03*
%TD*%
D10*
%TO.C,J_RGB_DATA*%
X94000000Y-103000000D03*
%TD*%
D16*
%TO.C,R48*%
X69400000Y-74365000D03*
X71600000Y-74365000D03*
%TD*%
D10*
%TO.C,J_RGB_5V*%
X88000000Y-103000000D03*
%TD*%
%TO.C,J_FTRIG*%
X112000000Y-40000000D03*
%TD*%
D32*
%TO.C,U4*%
X34800000Y-119025000D03*
D33*
X34800000Y-119675000D03*
X34800000Y-120325000D03*
X34800000Y-120975000D03*
X39200000Y-120975000D03*
D34*
X39200000Y-120325000D03*
D33*
X39200000Y-119675000D03*
X39200000Y-119025000D03*
%TD*%
D35*
%TO.C,U_TRIG_F*%
X102900000Y-39000000D03*
X102900000Y-40000000D03*
X102900000Y-41000000D03*
X105100000Y-41000000D03*
X105100000Y-39000000D03*
%TD*%
D23*
%TO.C,C18*%
X104525000Y-138000000D03*
X107475000Y-138000000D03*
%TD*%
D13*
%TO.C,R36*%
X32900000Y-134000000D03*
X35100000Y-134000000D03*
%TD*%
D35*
%TO.C,U_RGB*%
X66900000Y-101500000D03*
X66900000Y-102500000D03*
X66900000Y-103500000D03*
X69100000Y-103500000D03*
X69100000Y-101500000D03*
%TD*%
D16*
%TO.C,R20*%
X90600000Y-30200000D03*
X93400000Y-30200000D03*
%TD*%
%TO.C,R44*%
X100900000Y-134000000D03*
X103100000Y-134000000D03*
%TD*%
%TO.C,C1*%
X24600000Y-52300000D03*
X27400000Y-52300000D03*
%TD*%
D10*
%TO.C,J3V3*%
X114000000Y-88000000D03*
%TD*%
D17*
%TO.C,U7*%
X22810000Y-42730000D03*
D18*
X22810000Y-45270000D03*
X15190000Y-45270000D03*
X15190000Y-42730000D03*
%TD*%
D19*
%TO.C,JP_LBRK*%
X10730000Y-45270000D03*
X13270000Y-45270000D03*
%TD*%
D13*
%TO.C,C4*%
X22900000Y-18600000D03*
X25100000Y-18600000D03*
%TD*%
D24*
%TO.C,R38*%
X44400000Y-134000000D03*
X47600000Y-134000000D03*
%TD*%
D36*
%TO.C,J_SERVO*%
X6000000Y-145000000D03*
D19*
X8540000Y-145000000D03*
X11080000Y-145000000D03*
%TD*%
D16*
%TO.C,R19*%
X101600000Y-28000000D03*
X104400000Y-28000000D03*
%TD*%
%TO.C,R41*%
X100900000Y-116000000D03*
X103100000Y-116000000D03*
%TD*%
D37*
%TO.C,D2*%
X36500000Y-145000000D03*
X41500000Y-145000000D03*
%TD*%
D10*
%TO.C,J_LCTRL_GND*%
X12000000Y-52000000D03*
%TD*%
D16*
%TO.C,R6*%
X22600000Y-28200000D03*
X25400000Y-28200000D03*
%TD*%
D10*
%TO.C,JP5G*%
X95000000Y-96000000D03*
%TD*%
D21*
%TO.C,C19*%
X25000000Y-145000000D03*
D22*
X30000000Y-145000000D03*
%TD*%
D16*
%TO.C,R17*%
X24600000Y-70300000D03*
X27400000Y-70300000D03*
%TD*%
D10*
%TO.C,H5*%
X5000000Y-186000000D03*
%TD*%
%TO.C,J_RCTRL_GND*%
X12000000Y-58000000D03*
%TD*%
%TO.C,J_LTHR*%
X8000000Y-50000000D03*
%TD*%
D16*
%TO.C,C2*%
X24600000Y-58300000D03*
X27400000Y-58300000D03*
%TD*%
D17*
%TO.C,U6*%
X22810000Y-36730000D03*
D18*
X22810000Y-39270000D03*
X15190000Y-39270000D03*
X15190000Y-36730000D03*
%TD*%
D14*
%TO.C,Q5*%
X49000000Y-118000000D03*
D15*
X51540000Y-118000000D03*
X54080000Y-118000000D03*
%TD*%
D16*
%TO.C,R7*%
X15600000Y-32000000D03*
X18400000Y-32000000D03*
%TD*%
D23*
%TO.C,C11*%
X60525000Y-126000000D03*
X63475000Y-126000000D03*
%TD*%
D38*
%TO.C,J_BAT*%
X7000000Y-118000000D03*
D10*
X12000000Y-118000000D03*
%TD*%
D16*
%TO.C,R40*%
X95900000Y-116000000D03*
X98100000Y-116000000D03*
%TD*%
D10*
%TO.C,J_FECHO*%
X8000000Y-26000000D03*
%TD*%
D16*
%TO.C,C20*%
X105900000Y-112000000D03*
X108100000Y-112000000D03*
%TD*%
D10*
%TO.C,J3V3_1*%
X126000000Y-32000000D03*
%TD*%
%TO.C,J_LECHO*%
X8000000Y-32000000D03*
%TD*%
%TO.C,J_RECHO*%
X8000000Y-20000000D03*
%TD*%
D11*
%TO.C,J_LBRK*%
X5000000Y-46750000D03*
D12*
X5000000Y-43250000D03*
%TD*%
D13*
%TO.C,R39*%
X41900000Y-130000000D03*
X44100000Y-130000000D03*
%TD*%
D16*
%TO.C,R13*%
X18600000Y-50000000D03*
X21400000Y-50000000D03*
%TD*%
D35*
%TO.C,U_TRIG_L*%
X102900000Y-9000000D03*
X102900000Y-10000000D03*
X102900000Y-11000000D03*
X105100000Y-11000000D03*
X105100000Y-9000000D03*
%TD*%
D39*
%TO.C,R43*%
X88900000Y-105500000D03*
X91100000Y-105500000D03*
%TD*%
D16*
%TO.C,R3*%
X15600000Y-20000000D03*
X18400000Y-20000000D03*
%TD*%
D19*
%TO.C,JP_LREV*%
X10730000Y-63270000D03*
X13270000Y-63270000D03*
%TD*%
D10*
%TO.C,J_RHALLC*%
X112000000Y-76000000D03*
%TD*%
D35*
%TO.C,U_TRIG_R*%
X102900000Y-45000000D03*
X102900000Y-46000000D03*
X102900000Y-47000000D03*
X105100000Y-47000000D03*
X105100000Y-45000000D03*
%TD*%
D16*
%TO.C,C27*%
X61600000Y-69500000D03*
X63800000Y-69500000D03*
%TD*%
D10*
%TO.C,J_LTRIG*%
X112000000Y-10000000D03*
%TD*%
%TO.C,J_LHALLB*%
X112000000Y-34000000D03*
%TD*%
D13*
%TO.C,C7*%
X90900000Y-56500000D03*
X93100000Y-56500000D03*
%TD*%
D19*
%TO.C,JP_RBRK*%
X10730000Y-39270000D03*
X13270000Y-39270000D03*
%TD*%
D10*
%TO.C,JP3V*%
X36000000Y-92000000D03*
%TD*%
%TO.C,H3*%
X5000000Y-95000000D03*
%TD*%
D16*
%TO.C,R16*%
X29600000Y-62000000D03*
X32400000Y-62000000D03*
%TD*%
%TO.C,R1*%
X15600000Y-14000000D03*
X18400000Y-14000000D03*
%TD*%
%TO.C,R8*%
X22600000Y-34200000D03*
X25400000Y-34200000D03*
%TD*%
%TO.C,R24*%
X90600000Y-54200000D03*
X93400000Y-54200000D03*
%TD*%
%TO.C,R46*%
X48900000Y-74365000D03*
X51100000Y-74365000D03*
%TD*%
%TO.C,R26*%
X90600000Y-60200000D03*
X93400000Y-60200000D03*
%TD*%
D10*
%TO.C,JGND3_2*%
X122000000Y-42000000D03*
%TD*%
%TO.C,JP5V*%
X90000000Y-92000000D03*
%TD*%
D40*
%TO.C,U10*%
X60000000Y-73095000D03*
D41*
X60000000Y-74365000D03*
X60000000Y-75635000D03*
X60000000Y-76905000D03*
X65400000Y-76905000D03*
X65400000Y-75635000D03*
X65400000Y-74365000D03*
X65400000Y-73095000D03*
%TD*%
D16*
%TO.C,R2*%
X22600000Y-16200000D03*
X25400000Y-16200000D03*
%TD*%
D10*
%TO.C,JP4G*%
X83000000Y-96000000D03*
%TD*%
D16*
%TO.C,R4*%
X22600000Y-22200000D03*
X25400000Y-22200000D03*
%TD*%
%TO.C,R5*%
X15600000Y-26000000D03*
X18400000Y-26000000D03*
%TD*%
D13*
%TO.C,R35*%
X26900000Y-134000000D03*
X29100000Y-134000000D03*
%TD*%
D10*
%TO.C,J3V3_4*%
X126000000Y-62000000D03*
%TD*%
D16*
%TO.C,R51*%
X53900000Y-69000000D03*
X56100000Y-69000000D03*
%TD*%
D17*
%TO.C,U11*%
X135190000Y-17880000D03*
D18*
X135190000Y-20420000D03*
X135190000Y-22960000D03*
X135190000Y-25500000D03*
X135190000Y-28040000D03*
X135190000Y-30580000D03*
X135190000Y-33120000D03*
X142810000Y-33120000D03*
X142810000Y-30580000D03*
X142810000Y-28040000D03*
X142810000Y-25500000D03*
X142810000Y-22960000D03*
X142810000Y-20420000D03*
X142810000Y-17880000D03*
%TD*%
D42*
%TO.C,D1*%
X23600000Y-126000000D03*
X30400000Y-126000000D03*
%TD*%
D14*
%TO.C,Q6*%
X62160000Y-118000000D03*
D15*
X59620000Y-118000000D03*
X57080000Y-118000000D03*
%TD*%
D26*
%TO.C,F3*%
X120000000Y-157000000D03*
D27*
X120000000Y-179000000D03*
%TD*%
D13*
%TO.C,C8*%
X90900000Y-62500000D03*
X93100000Y-62500000D03*
%TD*%
D26*
%TO.C,F1*%
X16000000Y-108000000D03*
D27*
X38000000Y-108000000D03*
%TD*%
D10*
%TO.C,JGND3_1*%
X122000000Y-32000000D03*
%TD*%
D16*
%TO.C,R45*%
X53900000Y-73095000D03*
X56100000Y-73095000D03*
%TD*%
%TO.C,R27*%
X101600000Y-76000000D03*
X104400000Y-76000000D03*
%TD*%
D10*
%TO.C,J_SDA*%
X112000000Y-22000000D03*
%TD*%
%TO.C,H1*%
X5000000Y-5000000D03*
%TD*%
D43*
%TO.C,FB2*%
X16200000Y-145000000D03*
X19800000Y-145000000D03*
%TD*%
D16*
%TO.C,R15*%
X24600000Y-64300000D03*
X27400000Y-64300000D03*
%TD*%
D10*
%TO.C,J_TX0*%
X112000000Y-70000000D03*
%TD*%
D16*
%TO.C,R23*%
X101600000Y-52000000D03*
X104400000Y-52000000D03*
%TD*%
%TO.C,R14*%
X18600000Y-56000000D03*
X21400000Y-56000000D03*
%TD*%
%TO.C,C23*%
X106900000Y-45000000D03*
X109100000Y-45000000D03*
%TD*%
D10*
%TO.C,H4*%
X115000000Y-95000000D03*
%TD*%
D16*
%TO.C,R18*%
X29600000Y-68000000D03*
X32400000Y-68000000D03*
%TD*%
D10*
%TO.C,JP1V*%
X12000000Y-92000000D03*
%TD*%
D14*
%TO.C,C26*%
X48000000Y-160000000D03*
D15*
X51500000Y-160000000D03*
%TD*%
D16*
%TO.C,R29*%
X53900000Y-89000000D03*
X56100000Y-89000000D03*
%TD*%
D10*
%TO.C,JP4V*%
X78000000Y-92000000D03*
%TD*%
%TO.C,JP1G*%
X17000000Y-96000000D03*
%TD*%
D13*
%TO.C,C6*%
X90900000Y-38500000D03*
X93100000Y-38500000D03*
%TD*%
D10*
%TO.C,JP6V*%
X102000000Y-92000000D03*
%TD*%
D17*
%TO.C,U8*%
X22810000Y-60730000D03*
D18*
X22810000Y-63270000D03*
X15190000Y-63270000D03*
X15190000Y-60730000D03*
%TD*%
D16*
%TO.C,R9*%
X24600000Y-40300000D03*
X27400000Y-40300000D03*
%TD*%
D13*
%TO.C,R53*%
X46900000Y-66000000D03*
X49100000Y-66000000D03*
%TD*%
D19*
%TO.C,JP_RREV*%
X10730000Y-69270000D03*
X13270000Y-69270000D03*
%TD*%
D16*
%TO.C,R47*%
X48900000Y-78000000D03*
X51100000Y-78000000D03*
%TD*%
M02*
