M48
; DRILL file KiCad 10.0.5-10.0.5~ubuntu24.04.1 date 2026-08-11T13:53:21
; FORMAT={-:-/ absolute / metric / decimal}
; #@! TF.CreationDate,2026-08-11T13:53:21+00:00
; #@! TF.GenerationSoftware,Kicad,Pcbnew,10.0.5-10.0.5~ubuntu24.04.1
; #@! TF.FileFunction,MixedPlating,1,2
FMAT,2
METRIC
; #@! TA.AperFunction,Plated,PTH,ViaDrill
T1C0.400
; #@! TA.AperFunction,Plated,PTH,ViaDrill
T2C0.450
; #@! TA.AperFunction,Plated,PTH,ViaDrill
T3C0.500
; #@! TA.AperFunction,Plated,PTH,ViaDrill
T4C0.550
; #@! TA.AperFunction,Plated,PTH,ViaDrill
T5C0.600
; #@! TA.AperFunction,Plated,PTH,ComponentDrill
T6C0.900
; #@! TA.AperFunction,Plated,PTH,ViaDrill
T7C1.000
; #@! TA.AperFunction,Plated,PTH,ComponentDrill
T8C1.000
; #@! TA.AperFunction,Plated,PTH,ComponentDrill
T9C1.100
; #@! TA.AperFunction,Plated,PTH,ComponentDrill
T10C1.200
; #@! TA.AperFunction,Plated,PTH,ComponentDrill
T11C1.300
; #@! TA.AperFunction,Plated,PTH,ComponentDrill
T12C1.400
; #@! TA.AperFunction,Plated,PTH,ComponentDrill
T13C1.600
; #@! TA.AperFunction,Plated,PTH,ComponentDrill
T14C1.900
; #@! TA.AperFunction,NonPlated,NPTH,ComponentDrill
T15C3.200
%
G90
G05
T1
X110.0Y-9.0
X110.0Y-39.0
X110.0Y-45.0
X132.0Y-43.5
X132.0Y-47.0
X132.0Y-49.25
T2
X2.5Y-84.0
X5.0Y-82.0
X5.0Y-143.0
X23.5Y-54.5
X23.5Y-85.5
X25.5Y-134.0
X29.0Y-58.3
X29.0Y-87.0
X29.1Y-131.5
X30.5Y-120.325
X31.0Y-126.0
X32.4Y-119.675
X33.5Y-123.0
X37.0Y-26.0
X37.0Y-40.24
X38.4Y-131.5
X39.0Y-88.0
X40.0Y-117.0
X40.0Y-136.0
X41.5Y-119.675
X45.0Y-8.0
X51.0Y-85.5
X51.0Y-89.0
X57.0Y-75.635
X58.0Y-85.5
X62.0Y-60.56
X65.4Y-79.0
X65.4Y-87.0
X65.5Y-101.5
X65.5Y-103.5
X69.1Y-99.0
X72.0Y-136.0
X76.5Y-101.1
X78.0Y-67.0
X83.0Y-16.0
X87.0Y-105.5
X92.0Y-115.0
X101.7Y-9.0
X101.7Y-11.0
X101.7Y-39.0
X101.7Y-41.0
X101.7Y-45.0
X101.7Y-47.0
X101.7Y-103.0
X106.0Y-9.0
X106.0Y-39.0
X106.0Y-45.0
X114.0Y-37.0
X114.0Y-43.0
X114.0Y-48.5
X115.5Y-15.0
X117.0Y-37.0
X117.0Y-45.0
X117.0Y-48.5
X117.0Y-50.0
X118.0Y-16.0
X118.0Y-90.0
X120.5Y-37.0
X120.5Y-45.0
X120.5Y-48.5
X120.5Y-50.0
X121.5Y-100.0
X126.5Y-100.0
X128.5Y-37.0
X128.5Y-48.5
X132.0Y-35.0
X132.0Y-100.0
X134.0Y-15.0
T3
X43.0Y-14.0
X43.0Y-20.0
X43.0Y-32.0
X43.0Y-38.0
X43.0Y-50.0
X43.0Y-56.0
X43.0Y-62.0
X43.0Y-68.0
X43.0Y-80.0
X48.9Y-78.0
X52.0Y-58.0
X52.0Y-63.0
X54.0Y-60.56
X56.1Y-69.0
X58.0Y-88.5
X60.0Y-76.905
X63.8Y-70.8
X68.3Y-88.5
X69.4Y-71.0
X69.4Y-83.0
X83.0Y-10.0
X83.0Y-22.0
X83.0Y-28.0
X83.0Y-34.0
X83.0Y-40.0
X83.0Y-46.0
X83.0Y-52.0
X83.0Y-58.0
X83.0Y-64.0
X83.0Y-70.0
X83.0Y-76.0
X83.0Y-82.0
X104.5Y-134.0
X108.1Y-110.0
T4
X51.5Y-163.0
X59.62Y-126.0
X63.0Y-138.0
X109.0Y-138.0
X113.5Y-166.0
T5
X18.0Y-151.0
X45.0Y-150.0
X108.0Y-147.0
T6
X15.19Y-36.73
X15.19Y-39.27
X15.19Y-42.73
X15.19Y-45.27
X15.19Y-60.73
X15.19Y-63.27
X15.19Y-66.73
X15.19Y-69.27
X22.81Y-36.73
X22.81Y-39.27
X22.81Y-42.73
X22.81Y-45.27
X22.81Y-60.73
X22.81Y-63.27
X22.81Y-66.73
X22.81Y-69.27
X135.19Y-17.88
X135.19Y-20.42
X135.19Y-22.96
X135.19Y-25.5
X135.19Y-28.04
X135.19Y-30.58
X135.19Y-33.12
X142.81Y-17.88
X142.81Y-20.42
X142.81Y-22.96
X142.81Y-25.5
X142.81Y-28.04
X142.81Y-30.58
X142.81Y-33.12
T7
X51.54Y-113.5
T8
X6.0Y-145.0
X8.54Y-145.0
X10.73Y-39.27
X10.73Y-45.27
X10.73Y-63.27
X10.73Y-69.27
X11.08Y-145.0
X13.27Y-39.27
X13.27Y-45.27
X13.27Y-63.27
X13.27Y-69.27
X25.0Y-145.0
X30.0Y-145.0
X48.0Y-160.0
X50.0Y-25.0
X50.0Y-27.54
X50.0Y-30.08
X50.0Y-32.62
X50.0Y-35.16
X50.0Y-37.7
X50.0Y-40.24
X50.0Y-42.78
X50.0Y-45.32
X50.0Y-47.86
X50.0Y-50.4
X50.0Y-52.94
X50.0Y-55.48
X50.0Y-58.02
X50.0Y-60.56
X51.5Y-160.0
X58.0Y-138.0
X61.5Y-138.0
X75.4Y-25.0
X75.4Y-27.54
X75.4Y-30.08
X75.4Y-32.62
X75.4Y-35.16
X75.4Y-37.7
X75.4Y-40.24
X75.4Y-42.78
X75.4Y-45.32
X75.4Y-47.86
X75.4Y-50.4
X75.4Y-52.94
X75.4Y-55.48
X75.4Y-58.02
X75.4Y-60.56
X77.5Y-102.5
X82.5Y-102.5
X104.0Y-144.0
X107.5Y-144.0
T9
X49.0Y-118.0
X51.54Y-118.0
X54.08Y-118.0
X57.08Y-118.0
X59.62Y-118.0
X62.16Y-118.0
T10
X5.0Y-35.25
X5.0Y-38.75
X5.0Y-43.25
X5.0Y-46.75
X5.0Y-59.25
X5.0Y-62.75
X5.0Y-67.25
X5.0Y-70.75
X35.0Y-172.25
X35.0Y-175.75
T11
X7.0Y-118.0
X8.0Y-14.0
X8.0Y-20.0
X8.0Y-26.0
X8.0Y-32.0
X8.0Y-50.0
X8.0Y-56.0
X12.0Y-52.0
X12.0Y-58.0
X12.0Y-92.0
X12.0Y-118.0
X17.0Y-96.0
X24.0Y-92.0
X29.0Y-96.0
X36.0Y-92.0
X41.0Y-96.0
X59.14Y-159.84
X59.14Y-170.0
X59.14Y-180.16
X78.0Y-92.0
X83.0Y-96.0
X88.0Y-103.0
X90.0Y-92.0
X94.0Y-103.0
X95.0Y-96.0
X100.0Y-103.0
X102.0Y-92.0
X104.86Y-159.84
X104.86Y-170.0
X104.86Y-180.16
X107.0Y-96.0
X108.0Y-88.0
X112.0Y-10.0
X112.0Y-22.0
X112.0Y-28.0
X112.0Y-34.0
X112.0Y-40.0
X112.0Y-46.0
X112.0Y-52.0
X112.0Y-58.0
X112.0Y-64.0
X112.0Y-70.0
X112.0Y-76.0
X112.0Y-82.0
X114.0Y-88.0
X122.0Y-32.0
X122.0Y-42.0
X122.0Y-52.0
X122.0Y-62.0
X126.0Y-32.0
X126.0Y-42.0
X126.0Y-52.0
X126.0Y-62.0
T12
X68.53Y-126.38
X68.53Y-134.0
X68.53Y-141.62
X96.47Y-130.19
X96.47Y-134.0
X96.47Y-137.81
X111.0Y-143.0
X111.0Y-148.5
X115.2Y-143.0
X115.2Y-148.5
T13
X16.0Y-108.0
X38.0Y-108.0
X120.0Y-112.0
X120.0Y-134.0
X120.0Y-157.0
X120.0Y-179.0
T14
X96.47Y-126.38
X96.47Y-141.62
T15
X5.0Y-5.0
X5.0Y-95.0
X5.0Y-186.0
X115.0Y-95.0
X125.0Y-5.0
X125.0Y-186.0
M30
